<svg version="1.1" id="Layer_1" xmlns="http://www.w3.org/2000/svg" xmlns:xlink="http://www.w3.org/1999/xlink" x="0px" y="0px"
	 width="100%" viewBox="0 0 1024 1024" enable-background="new 0 0 1024 1024" xml:space="preserve">
<path fill="#252330" opacity="1.000000" stroke="none" 
	d="
M672.000000,1025.000000 
	C448.000000,1025.000000 224.500000,1025.000000 1.000000,1025.000000 
	C1.000000,683.666687 1.000000,342.333344 1.000000,1.000000 
	C342.333344,1.000000 683.666687,1.000000 1025.000000,1.000000 
	C1025.000000,342.333344 1025.000000,683.666687 1025.000000,1025.000000 
	C907.500000,1025.000000 790.000000,1025.000000 672.000000,1025.000000 
M430.507233,654.560547 
	C430.431213,653.965637 430.355164,653.370789 429.836700,652.047852 
	C428.486176,652.252075 427.135651,652.456238 424.948883,652.839844 
	C422.168945,652.839844 419.388977,652.839844 416.629211,652.839844 
	C416.629211,677.497864 416.629211,701.532104 416.629211,725.760559 
	C420.523468,725.760559 424.033203,725.978577 427.487396,725.636230 
	C428.621429,725.523865 429.611450,723.958252 431.350311,722.910645 
	C431.654297,722.562683 432.224945,722.214050 432.224060,721.866882 
	C432.179352,704.576477 432.113495,687.285889 431.943787,669.996399 
	C431.930389,668.630798 431.158112,667.272766 430.445648,665.066101 
	C430.555939,662.400513 430.666229,659.734863 431.253754,656.741943 
	C431.094299,656.138550 430.934814,655.535156 430.507233,654.560547 
M627.349365,652.567200 
	C627.349365,656.662292 627.349365,660.757446 627.349365,665.212585 
	C634.234802,665.212585 641.019897,665.212585 648.450073,665.212585 
	C648.450073,685.606934 648.450073,705.648376 648.450073,725.659302 
	C653.524231,725.659302 657.942322,725.659302 663.044250,725.659302 
	C663.044250,705.296692 663.044250,685.256531 663.044250,664.901001 
	C670.828796,664.901001 677.919617,664.901001 685.697144,664.901001 
	C685.095764,660.337158 684.547058,656.172668 683.946289,651.542297 
	C683.780701,651.310547 683.615112,651.078857 683.449524,650.847168 
	C683.296692,651.254456 683.143860,651.661682 682.218262,652.307495 
	C681.152588,652.228210 680.086853,652.148926 678.414185,651.490662 
	C670.324829,651.329346 662.235779,651.091309 654.145935,651.060120 
	C652.094055,651.052246 650.039734,651.702698 647.078125,652.287170 
	C641.386230,652.195129 635.694397,652.103088 629.695190,651.589233 
	C629.128723,651.732056 628.562256,651.874878 627.349365,652.567200 
M555.640259,249.003235 
	C511.197296,239.909256 469.302521,246.632751 429.950531,269.218414 
	C340.005615,320.841400 315.319916,428.185944 361.365417,510.265350 
	C401.208008,581.287537 484.050140,617.303894 563.179321,597.363098 
	C633.472656,579.648926 686.953674,519.456177 696.229187,446.993896 
	C701.048218,409.346924 695.786438,372.991547 677.339966,339.604706 
	C650.772583,291.519501 610.073547,261.507599 555.640259,249.003235 
M505.134033,690.349731 
	C503.315613,689.070007 501.497223,687.790283 499.522552,686.400574 
	C506.444519,681.175415 508.815582,674.338013 506.814606,666.395569 
	C504.782257,658.328674 498.365845,653.991333 490.799255,653.359009 
	C479.780579,652.438232 468.627808,653.122620 457.506958,653.122620 
	C457.506958,677.140808 457.506958,701.335876 457.506958,725.134155 
	C469.845337,725.134155 481.810760,725.689209 493.693329,724.936279 
	C501.434265,724.445801 507.446686,719.753906 510.011749,712.115295 
	C512.613647,704.366882 511.595490,697.011108 505.134033,690.349731 
M543.819885,661.322510 
	C531.428040,673.725952 528.102600,690.649658 535.173218,705.327148 
	C542.451782,720.436279 558.809387,729.008728 576.168701,726.811462 
	C599.474487,723.861572 615.220520,700.738098 608.954590,678.727783 
	C602.191772,654.972229 568.369507,639.757996 543.819885,661.322510 
M359.510529,725.819702 
	C370.608490,725.819702 381.706421,725.819702 392.975159,725.819702 
	C392.975159,721.196655 392.975159,716.924255 392.975159,712.178345 
	C382.229218,712.178345 371.692596,712.178345 360.702576,712.178345 
	C360.702576,692.169006 360.702576,672.630188 360.702576,653.181030 
	C355.631317,653.181030 351.036865,653.181030 346.332336,653.181030 
	C346.332336,677.485413 346.332336,701.508606 346.332336,725.825562 
	C350.600433,725.825562 354.557892,725.825562 359.510529,725.819702 
M454.739563,762.524475 
	C454.739563,758.749512 454.739563,754.974548 454.739563,751.083374 
	C452.471954,751.083374 450.730469,751.083374 448.215179,751.083374 
	C448.215179,757.007446 448.215179,762.665283 448.215179,769.808960 
	C442.892609,763.663452 438.520721,758.898621 434.497101,753.855957 
	C432.338654,751.150818 430.114288,750.156860 427.071594,751.394409 
	C427.071594,761.401855 427.071594,771.176147 427.071594,781.148560 
	C429.153778,781.148560 430.951569,781.148560 433.551422,781.148560 
	C433.551422,775.466125 433.551422,769.861084 433.551422,763.678040 
	C441.047455,769.621765 443.546539,779.855957 454.724823,782.141907 
	C454.724823,775.125732 454.724823,769.320374 454.739563,762.524475 
M629.269836,756.136353 
	C626.824951,753.488098 625.234741,749.223389 620.148682,751.365112 
	C620.148682,761.137146 620.148682,770.903198 620.148682,780.925354 
	C622.162720,780.925354 623.932800,780.925354 626.147827,780.925354 
	C626.147827,775.203369 626.147827,769.645325 626.147827,763.574341 
	C633.968140,769.017883 636.817566,779.314941 646.946716,781.996887 
	C646.946716,771.069885 646.946716,761.035217 646.946716,750.708313 
	C644.841003,750.881775 643.096924,751.025452 640.795166,751.215027 
	C640.795166,757.105896 640.795166,762.610291 640.795166,769.085693 
	C636.613586,764.372925 633.192261,760.517090 629.269836,756.136353 
M411.073517,754.403625 
	C409.508636,753.472656 408.024994,752.351135 406.365021,751.643127 
	C398.623322,748.341125 389.509827,751.511597 385.799896,758.690979 
	C381.816711,766.399109 384.195374,775.083862 391.510071,779.540283 
	C398.609589,783.865417 407.941895,782.378113 413.152710,776.090881 
	C418.144226,770.068298 417.520081,761.416931 411.073517,754.403625 
M660.049744,772.152893 
	C660.528137,773.024902 660.927490,773.952698 661.497437,774.760132 
	C666.190735,781.409302 674.812378,783.730286 684.485229,780.359680 
	C690.838501,778.145752 686.608582,772.283081 687.871155,768.261047 
	C688.081482,767.590881 687.765808,766.755615 687.678162,765.838562 
	C683.512817,766.075073 679.702759,766.291321 675.892700,766.507629 
	C675.786438,767.042419 675.680176,767.577271 675.573975,768.112061 
	C677.636597,768.948059 679.699219,769.784119 681.769775,770.623352 
	C681.693787,774.543579 679.681580,776.120483 676.101440,776.175293 
	C671.963257,776.238647 668.443359,775.119507 666.787781,770.973145 
	C665.082703,766.702942 665.074280,762.368591 668.361572,758.837952 
	C671.475952,755.493103 675.730652,755.261536 679.394348,757.334351 
	C683.063538,759.410339 684.938843,758.176880 686.969543,755.429810 
	C680.832397,750.020996 672.839783,749.034241 666.552490,752.736450 
	C660.157715,756.502136 657.926086,762.689819 660.049744,772.152893 
M371.208649,778.927551 
	C375.568939,774.621216 375.539062,774.469910 369.467407,771.466431 
	C369.251923,771.773926 369.033539,772.231384 368.689178,772.554688 
	C364.204803,776.764282 358.838318,777.110596 354.930389,773.465637 
	C351.437225,770.207458 351.006897,764.290833 353.970856,760.272644 
	C357.046387,756.103149 363.104858,755.031311 367.742706,758.539490 
	C371.093567,761.074158 372.933289,759.840698 375.034698,757.370178 
	C369.256622,749.767578 359.645447,748.113220 351.998077,753.272827 
	C345.261536,757.817871 343.105072,767.685181 347.346619,774.556885 
	C351.996124,782.089600 362.242157,784.189636 371.208649,778.927551 
M485.476532,759.119263 
	C490.372894,757.966064 487.585144,755.303345 486.093475,753.903748 
	C482.282104,750.327454 477.485657,749.613953 472.611877,751.246460 
	C468.688416,752.560547 465.284943,754.772766 465.606262,759.721252 
	C465.925079,764.632080 469.067444,767.007263 473.517548,768.030151 
	C475.617828,768.512878 477.861511,768.599304 479.814758,769.409119 
	C480.993622,769.897888 482.675659,771.681946 482.472534,772.438599 
	C482.120758,773.749084 480.384644,775.723450 479.398956,775.629883 
	C476.672485,775.371155 474.060028,774.083191 471.351044,773.408630 
	C469.507263,772.949524 467.576874,772.838257 465.685211,772.571533 
	C466.131073,774.277466 466.057007,776.472656 467.117859,777.599854 
	C470.659607,781.363464 475.239990,782.493652 480.346497,781.541565 
	C486.111572,780.466675 489.122101,777.439697 489.220001,772.495544 
	C489.303040,768.300964 486.507050,765.394531 480.990234,763.973206 
	C478.905975,763.436218 476.653198,763.256165 474.777161,762.315308 
	C473.576782,761.713318 472.052704,759.835144 472.255737,758.857605 
	C472.493317,757.713684 474.622070,755.978943 475.629486,756.161499 
	C478.756409,756.727966 481.740723,758.081665 485.476532,759.119263 
M506.384338,780.330566 
	C516.096802,784.240051 524.842773,780.562317 525.557190,771.822327 
	C526.107483,765.090027 525.666870,758.276672 525.666870,751.332092 
	C523.458191,751.332092 521.615173,751.332092 519.102722,751.332092 
	C519.102722,757.996338 519.166077,764.291565 519.080750,770.584778 
	C519.022644,774.875244 516.420837,776.404663 512.476135,776.055298 
	C508.003937,775.659241 506.128418,772.849854 506.078003,768.647339 
	C506.008667,762.867920 506.060638,757.087158 506.060638,751.335205 
	C503.770905,751.335205 501.917389,751.335205 499.837769,751.335205 
	C499.837769,757.364441 499.903992,763.007751 499.817688,768.648621 
	C499.743011,773.531433 501.577820,777.340027 506.384338,780.330566 
M573.612976,750.772827 
	C570.664368,750.772827 567.715759,750.772827 564.686646,750.772827 
	C564.686646,752.864197 564.686646,754.445496 564.686646,756.567139 
	C568.193176,756.567139 571.442078,756.567139 575.184692,756.567139 
	C575.184692,765.147644 575.184692,773.201477 575.184692,781.211060 
	C577.455872,781.211060 579.199646,781.211060 581.517822,781.211060 
	C581.517822,772.873047 581.517822,764.824097 581.517822,756.320618 
	C584.999695,756.320618 587.902161,756.320618 590.787720,756.320618 
	C590.787720,754.231201 590.787720,752.628052 590.787720,750.774231 
	C585.209656,750.774231 579.896301,750.774231 573.612976,750.772827 
M538.154663,751.874939 
	C538.154663,761.483521 538.154663,771.092102 538.154663,781.097290 
	C545.497681,781.097290 552.545959,781.097290 559.980713,781.097290 
	C559.861755,779.304504 559.759399,777.761963 559.626587,775.760803 
	C554.461426,775.760803 549.732178,775.760803 544.585205,775.760803 
	C544.585205,767.217468 544.585205,759.161316 544.585205,750.826416 
	C542.334595,750.944763 540.529297,751.039734 538.154663,751.874939 
M607.818176,756.778198 
	C607.818176,754.878723 607.818176,752.979309 607.818176,751.040161 
	C605.093445,751.040161 603.146912,751.040161 601.291016,751.040161 
	C601.291016,761.181885 601.291016,771.065674 601.291016,781.025024 
	C603.635559,781.025024 605.646301,781.025024 607.822449,781.025024 
	C607.822449,772.956116 607.822449,765.334351 607.818176,756.778198 
z"/>
<path fill="#F6F6F5" opacity="1.000000" stroke="none" 
	d="
M556.054077,249.073837 
	C610.073547,261.507599 650.772583,291.519501 677.339966,339.604706 
	C695.786438,372.991547 701.048218,409.346924 696.229187,446.993896 
	C686.953674,519.456177 633.472656,579.648926 563.179321,597.363098 
	C484.050140,617.303894 401.208008,581.287537 361.365417,510.265350 
	C315.319916,428.185944 340.005615,320.841400 429.950531,269.218414 
	C469.302521,246.632751 511.197296,239.909256 556.054077,249.073837 
M672.853760,456.175964 
	C677.118042,434.838806 676.958679,413.523743 673.045715,392.127045 
	C660.568604,323.899780 597.431274,269.564575 528.004883,266.912201 
	C479.893372,265.074188 439.316315,281.968872 405.385742,315.334747 
	C354.641449,365.234436 345.304626,446.944458 384.460083,506.381348 
	C420.886414,561.675537 472.862091,587.108948 538.968018,579.557190 
	C604.513855,572.069275 658.499329,521.582581 672.853760,456.175964 
z"/>
<path fill="#F3F3F3" opacity="1.000000" stroke="none" 
	d="
M505.403992,690.589355 
	C511.595490,697.011108 512.613647,704.366882 510.011749,712.115295 
	C507.446686,719.753906 501.434265,724.445801 493.693329,724.936279 
	C481.810760,725.689209 469.845337,725.134155 457.506958,725.134155 
	C457.506958,701.335876 457.506958,677.140808 457.506958,653.122620 
	C468.627808,653.122620 479.780579,652.438232 490.799255,653.359009 
	C498.365845,653.991333 504.782257,658.328674 506.814606,666.395569 
	C508.815582,674.338013 506.444519,681.175415 499.522552,686.400574 
	C501.497223,687.790283 503.315613,689.070007 505.403992,690.589355 
M471.978058,705.452637 
	C471.978058,707.873413 471.978058,710.294189 471.978058,712.845459 
	C477.708862,712.845459 482.847137,713.110962 487.945251,712.772156 
	C493.239777,712.420227 495.886292,709.291016 496.176270,703.970886 
	C496.467987,698.618530 494.085083,694.820801 489.024689,694.311890 
	C483.509888,693.757141 477.896210,694.185852 471.974945,694.185852 
	C471.974945,697.899902 471.974945,701.189087 471.978058,705.452637 
M484.031647,664.984436 
	C480.086243,664.984436 476.140869,664.984436 472.047424,664.984436 
	C472.047424,670.738525 472.047424,676.135559 472.047424,681.917786 
	C476.090027,681.917786 479.891693,682.085876 483.672699,681.878052 
	C489.199860,681.574219 492.561401,678.542847 492.901306,673.928284 
	C493.262817,669.020264 490.870148,666.356201 484.031647,664.984436 
z"/>
<path fill="#F5F5F5" opacity="1.000000" stroke="none" 
	d="
M544.081421,661.081177 
	C568.369507,639.757996 602.191772,654.972229 608.954590,678.727783 
	C615.220520,700.738098 599.474487,723.861572 576.168701,726.811462 
	C558.809387,729.008728 542.451782,720.436279 535.173218,705.327148 
	C528.102600,690.649658 531.428040,673.725952 544.081421,661.081177 
M580.047546,711.875916 
	C581.073120,711.325989 582.123474,710.817383 583.120300,710.219604 
	C592.021362,704.881592 596.610474,694.796204 594.779602,684.638367 
	C592.972656,674.613342 585.668213,667.111755 575.810913,665.157715 
	C565.601990,663.133972 555.308350,667.370605 549.741699,675.887268 
	C544.176270,684.402039 544.603943,694.933167 550.859497,703.414856 
	C557.495728,712.412659 567.650818,715.524414 580.047546,711.875916 
z"/>
<path fill="#F1F0F1" opacity="1.000000" stroke="none" 
	d="
M679.021179,652.069641 
	C680.086853,652.148926 681.152588,652.228210 682.862061,652.265137 
	C683.670044,652.151245 683.834229,652.079712 683.998352,652.008240 
	C684.547058,656.172668 685.095764,660.337158 685.697144,664.901001 
	C677.919617,664.901001 670.828796,664.901001 663.044250,664.901001 
	C663.044250,685.256531 663.044250,705.296692 663.044250,725.659302 
	C657.942322,725.659302 653.524231,725.659302 648.450073,725.659302 
	C648.450073,705.648376 648.450073,685.606934 648.450073,665.212585 
	C641.019897,665.212585 634.234802,665.212585 627.349365,665.212585 
	C627.349365,660.757446 627.349365,656.662292 628.003906,652.377197 
	C629.106506,652.128479 629.554504,652.069763 630.002502,652.011047 
	C635.694397,652.103088 641.386230,652.195129 647.992798,652.268188 
	C658.945374,652.189392 668.983276,652.129517 679.021179,652.069641 
z"/>
<path fill="#F2F2F3" opacity="1.000000" stroke="none" 
	d="
M359.012939,725.822632 
	C354.557892,725.825562 350.600433,725.825562 346.332336,725.825562 
	C346.332336,701.508606 346.332336,677.485413 346.332336,653.181030 
	C351.036865,653.181030 355.631317,653.181030 360.702576,653.181030 
	C360.702576,672.630188 360.702576,692.169006 360.702576,712.178345 
	C371.692596,712.178345 382.229218,712.178345 392.975159,712.178345 
	C392.975159,716.924255 392.975159,721.196655 392.975159,725.819702 
	C381.706421,725.819702 370.608490,725.819702 359.012939,725.822632 
z"/>
<path fill="#F4F4F4" opacity="1.000000" stroke="none" 
	d="
M430.776520,657.069275 
	C430.666229,659.734863 430.555939,662.400513 430.468292,665.949829 
	C430.549713,685.574768 430.608521,704.315918 430.667297,723.057129 
	C429.611450,723.958252 428.621429,725.523865 427.487396,725.636230 
	C424.033203,725.978577 420.523468,725.760559 416.629211,725.760559 
	C416.629211,701.532104 416.629211,677.497864 416.629211,652.839844 
	C419.388977,652.839844 422.168945,652.839844 425.809692,652.826111 
	C427.873352,652.800232 429.076263,652.788086 430.279114,652.775879 
	C430.355164,653.370789 430.431213,653.965637 430.524841,655.094910 
	C430.620483,656.109253 430.698517,656.589294 430.776520,657.069275 
z"/>
<path fill="#F2F2F3" opacity="1.000000" stroke="none" 
	d="
M454.732178,763.019775 
	C454.724823,769.320374 454.724823,775.125732 454.724823,782.141907 
	C443.546539,779.855957 441.047455,769.621765 433.551422,763.678040 
	C433.551422,769.861084 433.551422,775.466125 433.551422,781.148560 
	C430.951569,781.148560 429.153778,781.148560 427.071594,781.148560 
	C427.071594,771.176147 427.071594,761.401855 427.071594,751.394409 
	C430.114288,750.156860 432.338654,751.150818 434.497101,753.855957 
	C438.520721,758.898621 442.892609,763.663452 448.215179,769.808960 
	C448.215179,762.665283 448.215179,757.007446 448.215179,751.083374 
	C450.730469,751.083374 452.471954,751.083374 454.739563,751.083374 
	C454.739563,754.974548 454.739563,758.749512 454.732178,763.019775 
z"/>
<path fill="#F5F5F5" opacity="1.000000" stroke="none" 
	d="
M629.520386,756.398804 
	C633.192261,760.517090 636.613586,764.372925 640.795166,769.085693 
	C640.795166,762.610291 640.795166,757.105896 640.795166,751.215027 
	C643.096924,751.025452 644.841003,750.881775 646.946716,750.708313 
	C646.946716,761.035217 646.946716,771.069885 646.946716,781.996887 
	C636.817566,779.314941 633.968140,769.017883 626.147827,763.574341 
	C626.147827,769.645325 626.147827,775.203369 626.147827,780.925354 
	C623.932800,780.925354 622.162720,780.925354 620.148682,780.925354 
	C620.148682,770.903198 620.148682,761.137146 620.148682,751.365112 
	C625.234741,749.223389 626.824951,753.488098 629.520386,756.398804 
z"/>
<path fill="#ECECEE" opacity="1.000000" stroke="none" 
	d="
M411.347931,754.641052 
	C417.520081,761.416931 418.144226,770.068298 413.152710,776.090881 
	C407.941895,782.378113 398.609589,783.865417 391.510071,779.540283 
	C384.195374,775.083862 381.816711,766.399109 385.799896,758.690979 
	C389.509827,751.511597 398.623322,748.341125 406.365021,751.643127 
	C408.024994,752.351135 409.508636,753.472656 411.347931,754.641052 
M390.701233,767.836243 
	C392.865082,774.182800 396.251129,776.638672 401.914154,775.968811 
	C406.357361,775.443237 409.418091,772.314819 409.887970,767.818542 
	C410.555145,761.434509 407.047058,756.879761 401.028656,756.315979 
	C394.670502,755.720398 390.948669,759.539612 390.701233,767.836243 
z"/>
<path fill="#ECECEE" opacity="1.000000" stroke="none" 
	d="
M659.939209,771.766479 
	C657.926086,762.689819 660.157715,756.502136 666.552490,752.736450 
	C672.839783,749.034241 680.832397,750.020996 686.969543,755.429810 
	C684.938843,758.176880 683.063538,759.410339 679.394348,757.334351 
	C675.730652,755.261536 671.475952,755.493103 668.361572,758.837952 
	C665.074280,762.368591 665.082703,766.702942 666.787781,770.973145 
	C668.443359,775.119507 671.963257,776.238647 676.101440,776.175293 
	C679.681580,776.120483 681.693787,774.543579 681.769775,770.623352 
	C679.699219,769.784119 677.636597,768.948059 675.573975,768.112061 
	C675.680176,767.577271 675.786438,767.042419 675.892700,766.507629 
	C679.702759,766.291321 683.512817,766.075073 687.678162,765.838562 
	C687.765808,766.755615 688.081482,767.590881 687.871155,768.261047 
	C686.608582,772.283081 690.838501,778.145752 684.485229,780.359680 
	C674.812378,783.730286 666.190735,781.409302 661.497437,774.760132 
	C660.927490,773.952698 660.528137,773.024902 659.939209,771.766479 
z"/>
<path fill="#E9E9EB" opacity="1.000000" stroke="none" 
	d="
M370.905273,779.125488 
	C362.242157,784.189636 351.996124,782.089600 347.346619,774.556885 
	C343.105072,767.685181 345.261536,757.817871 351.998077,753.272827 
	C359.645447,748.113220 369.256622,749.767578 375.034698,757.370178 
	C372.933289,759.840698 371.093567,761.074158 367.742706,758.539490 
	C363.104858,755.031311 357.046387,756.103149 353.970856,760.272644 
	C351.006897,764.290833 351.437225,770.207458 354.930389,773.465637 
	C358.838318,777.110596 364.204803,776.764282 368.689178,772.554688 
	C369.033539,772.231384 369.251923,771.773926 369.467407,771.466431 
	C375.539062,774.469910 375.568939,774.621216 370.905273,779.125488 
z"/>
<path fill="#EEEEF0" opacity="1.000000" stroke="none" 
	d="
M485.128448,759.124634 
	C481.740723,758.081665 478.756409,756.727966 475.629486,756.161499 
	C474.622070,755.978943 472.493317,757.713684 472.255737,758.857605 
	C472.052704,759.835144 473.576782,761.713318 474.777161,762.315308 
	C476.653198,763.256165 478.905975,763.436218 480.990234,763.973206 
	C486.507050,765.394531 489.303040,768.300964 489.220001,772.495544 
	C489.122101,777.439697 486.111572,780.466675 480.346497,781.541565 
	C475.239990,782.493652 470.659607,781.363464 467.117859,777.599854 
	C466.057007,776.472656 466.131073,774.277466 465.685211,772.571533 
	C467.576874,772.838257 469.507263,772.949524 471.351044,773.408630 
	C474.060028,774.083191 476.672485,775.371155 479.398956,775.629883 
	C480.384644,775.723450 482.120758,773.749084 482.472534,772.438599 
	C482.675659,771.681946 480.993622,769.897888 479.814758,769.409119 
	C477.861511,768.599304 475.617828,768.512878 473.517548,768.030151 
	C469.067444,767.007263 465.925079,764.632080 465.606262,759.721252 
	C465.284943,754.772766 468.688416,752.560547 472.611877,751.246460 
	C477.485657,749.613953 482.282104,750.327454 486.093475,753.903748 
	C487.585144,755.303345 490.372894,757.966064 485.128448,759.124634 
z"/>
<path fill="#ECECEE" opacity="1.000000" stroke="none" 
	d="
M506.036194,780.174438 
	C501.577820,777.340027 499.743011,773.531433 499.817688,768.648621 
	C499.903992,763.007751 499.837769,757.364441 499.837769,751.335205 
	C501.917389,751.335205 503.770905,751.335205 506.060638,751.335205 
	C506.060638,757.087158 506.008667,762.867920 506.078003,768.647339 
	C506.128418,772.849854 508.003937,775.659241 512.476135,776.055298 
	C516.420837,776.404663 519.022644,774.875244 519.080750,770.584778 
	C519.166077,764.291565 519.102722,757.996338 519.102722,751.332092 
	C521.615173,751.332092 523.458191,751.332092 525.666870,751.332092 
	C525.666870,758.276672 526.107483,765.090027 525.557190,771.822327 
	C524.842773,780.562317 516.096802,784.240051 506.036194,780.174438 
z"/>
<path fill="#F2F2F3" opacity="1.000000" stroke="none" 
	d="
M574.098022,750.773560 
	C579.896301,750.774231 585.209656,750.774231 590.787720,750.774231 
	C590.787720,752.628052 590.787720,754.231201 590.787720,756.320618 
	C587.902161,756.320618 584.999695,756.320618 581.517822,756.320618 
	C581.517822,764.824097 581.517822,772.873047 581.517822,781.211060 
	C579.199646,781.211060 577.455872,781.211060 575.184692,781.211060 
	C575.184692,773.201477 575.184692,765.147644 575.184692,756.567139 
	C571.442078,756.567139 568.193176,756.567139 564.686646,756.567139 
	C564.686646,754.445496 564.686646,752.864197 564.686646,750.772827 
	C567.715759,750.772827 570.664368,750.772827 574.098022,750.773560 
z"/>
<path fill="#EEEEF0" opacity="1.000000" stroke="none" 
	d="
M538.439331,751.504761 
	C540.529297,751.039734 542.334595,750.944763 544.585205,750.826416 
	C544.585205,759.161316 544.585205,767.217468 544.585205,775.760803 
	C549.732178,775.760803 554.461426,775.760803 559.626587,775.760803 
	C559.759399,777.761963 559.861755,779.304504 559.980713,781.097290 
	C552.545959,781.097290 545.497681,781.097290 538.154663,781.097290 
	C538.154663,771.092102 538.154663,761.483521 538.439331,751.504761 
z"/>
<path fill="#ECECEE" opacity="1.000000" stroke="none" 
	d="
M607.820312,757.245361 
	C607.822449,765.334351 607.822449,772.956116 607.822449,781.025024 
	C605.646301,781.025024 603.635559,781.025024 601.291016,781.025024 
	C601.291016,771.065674 601.291016,761.181885 601.291016,751.040161 
	C603.146912,751.040161 605.093445,751.040161 607.818176,751.040161 
	C607.818176,752.979309 607.818176,754.878723 607.820312,757.245361 
z"/>
<path fill="#15141A" opacity="1.000000" stroke="none" 
	d="
M431.008820,722.983887 
	C430.608521,704.315918 430.549713,685.574768 430.614746,666.372375 
	C431.158112,667.272766 431.930389,668.630798 431.943787,669.996399 
	C432.113495,687.285889 432.179352,704.576477 432.224060,721.866882 
	C432.224945,722.214050 431.654297,722.562683 431.008820,722.983887 
z"/>
<path fill="#15141A" opacity="1.000000" stroke="none" 
	d="
M678.717651,651.780151 
	C668.983276,652.129517 658.945374,652.189392 648.447021,652.150024 
	C650.039734,651.702698 652.094055,651.052246 654.145935,651.060120 
	C662.235779,651.091309 670.324829,651.329346 678.717651,651.780151 
z"/>
<path fill="#15141A" opacity="1.000000" stroke="none" 
	d="
M430.057922,652.411865 
	C429.076263,652.788086 427.873352,652.800232 426.227783,652.736389 
	C427.135651,652.456238 428.486176,652.252075 430.057922,652.411865 
z"/>
<path fill="#15141A" opacity="1.000000" stroke="none" 
	d="
M431.015137,656.905640 
	C430.698517,656.589294 430.620483,656.109253 430.658875,655.280518 
	C430.934814,655.535156 431.094299,656.138550 431.015137,656.905640 
z"/>
<path fill="#15141A" opacity="1.000000" stroke="none" 
	d="
M629.848877,651.800171 
	C629.554504,652.069763 629.106506,652.128479 628.327148,652.102417 
	C628.562256,651.874878 629.128723,651.732056 629.848877,651.800171 
z"/>
<path fill="#15141A" opacity="1.000000" stroke="none" 
	d="
M683.972290,651.775269 
	C683.834229,652.079712 683.670044,652.151245 683.248474,652.145874 
	C683.143860,651.661682 683.296692,651.254456 683.449585,650.847168 
	C683.615112,651.078857 683.780701,651.310547 683.972290,651.775269 
z"/>
<path fill="#252330" opacity="1.000000" stroke="none" 
	d="
M672.768982,456.593689 
	C658.499329,521.582581 604.513855,572.069275 538.968018,579.557190 
	C472.862091,587.108948 420.886414,561.675537 384.460083,506.381348 
	C345.304626,446.944458 354.641449,365.234436 405.385742,315.334747 
	C439.316315,281.968872 479.893372,265.074188 528.004883,266.912201 
	C597.431274,269.564575 660.568604,323.899780 673.045715,392.127045 
	C676.958679,413.523743 677.118042,434.838806 672.768982,456.593689 
M529.702271,322.113953 
	C529.783936,319.411804 529.865601,316.709686 530.208984,313.780426 
	C530.061035,313.544281 529.913086,313.308136 529.008606,312.813812 
	C521.201172,312.734192 513.389893,312.475220 505.587769,312.643127 
	C501.009766,312.741638 497.633698,316.267395 497.062866,320.920654 
	C496.820770,322.894165 496.905914,324.912628 496.908081,326.910614 
	C496.957886,373.390503 497.013763,419.870361 497.076477,466.350250 
	C497.089233,475.797302 497.103882,475.847168 506.872040,475.859100 
	C532.694275,475.890625 558.516541,475.874878 584.338806,475.877716 
	C589.825134,475.878296 595.311401,475.877777 601.147644,475.877777 
	C601.147644,465.104858 601.147644,454.559845 601.147644,443.732788 
	C598.390137,443.732788 595.908691,443.733093 593.427246,443.732697 
	C573.276978,443.729645 553.126648,443.726501 532.784668,443.118134 
	C531.869263,442.747742 530.953918,442.377350 529.827148,441.089569 
	C529.861633,423.397919 529.896118,405.706238 530.513062,387.412323 
	C530.672546,386.608154 530.970093,385.804169 530.971191,384.999786 
	C530.998291,365.555054 531.012939,346.110199 530.949646,326.665649 
	C530.945679,325.438446 530.289246,324.213348 529.702271,322.113953 
M478.173065,499.328583 
	C476.789001,499.245483 475.404938,499.162354 473.809540,498.784760 
	C473.533264,498.879822 473.256958,498.974854 472.156708,498.732635 
	C472.104065,497.239716 472.005554,495.746796 472.005341,494.253876 
	C471.998108,443.121338 472.000122,391.988770 472.000824,340.856232 
	C472.000854,339.051636 472.000854,337.247009 472.000854,334.657776 
	C464.920410,336.978088 458.519745,339.234650 452.017883,341.147064 
	C448.074066,342.307068 446.751068,344.330566 446.770416,348.619751 
	C447.030640,406.246918 447.061493,463.875061 447.160492,521.502991 
	C447.162140,522.452026 447.303711,523.400818 447.399109,524.588013 
	C498.792450,524.588013 549.857544,524.588013 601.276611,524.588013 
	C601.276611,516.166016 601.276611,507.821167 601.276611,499.376465 
	C568.917114,499.376465 536.945068,499.394684 504.973022,499.363617 
	C496.990814,499.355865 489.008759,499.189331 480.710907,498.655884 
	C480.132477,498.799927 479.554047,498.943970 478.173065,499.328583 
z"/>
<path fill="#25242F" opacity="1.000000" stroke="none" 
	d="
M471.976501,704.965454 
	C471.974945,701.189087 471.974945,697.899902 471.974945,694.185852 
	C477.896210,694.185852 483.509888,693.757141 489.024689,694.311890 
	C494.085083,694.820801 496.467987,698.618530 496.176270,703.970886 
	C495.886292,709.291016 493.239777,712.420227 487.945251,712.772156 
	C482.847137,713.110962 477.708862,712.845459 471.978058,712.845459 
	C471.978058,710.294189 471.978058,707.873413 471.976501,704.965454 
z"/>
<path fill="#25242F" opacity="1.000000" stroke="none" 
	d="
M484.473999,665.011108 
	C490.870148,666.356201 493.262817,669.020264 492.901306,673.928284 
	C492.561401,678.542847 489.199860,681.574219 483.672699,681.878052 
	C479.891693,682.085876 476.090027,681.917786 472.047424,681.917786 
	C472.047424,676.135559 472.047424,670.738525 472.047424,664.984436 
	C476.140869,664.984436 480.086243,664.984436 484.473999,665.011108 
z"/>
<path fill="#25242F" opacity="1.000000" stroke="none" 
	d="
M579.673706,712.002808 
	C567.650818,715.524414 557.495728,712.412659 550.859497,703.414856 
	C544.603943,694.933167 544.176270,684.402039 549.741699,675.887268 
	C555.308350,667.370605 565.601990,663.133972 575.810913,665.157715 
	C585.668213,667.111755 592.972656,674.613342 594.779602,684.638367 
	C596.610474,694.796204 592.021362,704.881592 583.120300,710.219604 
	C582.123474,710.817383 581.073120,711.325989 579.673706,712.002808 
z"/>
<path fill="#2A2832" opacity="1.000000" stroke="none" 
	d="
M390.603638,767.475159 
	C390.948669,759.539612 394.670502,755.720398 401.028656,756.315979 
	C407.047058,756.879761 410.555145,761.434509 409.887970,767.818542 
	C409.418091,772.314819 406.357361,775.443237 401.914154,775.968811 
	C396.251129,776.638672 392.865082,774.182800 390.603638,767.475159 
z"/>
<path fill="#F4F4F4" opacity="1.000000" stroke="none" 
	d="
M474.020874,499.079224 
	C475.404938,499.162354 476.789001,499.245483 478.911499,499.304321 
	C480.108795,499.218628 480.567719,499.157196 481.026611,499.095764 
	C489.008759,499.189331 496.990814,499.355865 504.973022,499.363617 
	C536.945068,499.394684 568.917114,499.376465 601.276611,499.376465 
	C601.276611,507.821167 601.276611,516.166016 601.276611,524.588013 
	C549.857544,524.588013 498.792450,524.588013 447.399109,524.588013 
	C447.303711,523.400818 447.162140,522.452026 447.160492,521.502991 
	C447.061493,463.875061 447.030640,406.246918 446.770416,348.619751 
	C446.751068,344.330566 448.074066,342.307068 452.017883,341.147064 
	C458.519745,339.234650 464.920410,336.978088 472.000854,334.657776 
	C472.000854,337.247009 472.000854,339.051636 472.000824,340.856232 
	C472.000122,391.988770 471.998108,443.121338 472.005341,494.253876 
	C472.005554,495.746796 472.104065,497.239716 472.828003,498.986572 
	C473.673187,499.186798 473.847015,499.133026 474.020874,499.079224 
z"/>
<path fill="#F7F7F6" opacity="1.000000" stroke="none" 
	d="
M532.976379,443.723358 
	C553.126648,443.726501 573.276978,443.729645 593.427246,443.732697 
	C595.908691,443.733093 598.390137,443.732788 601.147644,443.732788 
	C601.147644,454.559845 601.147644,465.104858 601.147644,475.877777 
	C595.311401,475.877777 589.825134,475.878296 584.338806,475.877716 
	C558.516541,475.874878 532.694275,475.890625 506.872040,475.859100 
	C497.103882,475.847168 497.089233,475.797302 497.076477,466.350250 
	C497.013763,419.870361 496.957886,373.390503 496.908081,326.910614 
	C496.905914,324.912628 496.820770,322.894165 497.062866,320.920654 
	C497.633698,316.267395 501.009766,312.741638 505.587769,312.643127 
	C513.389893,312.475220 521.201172,312.734192 529.386963,313.185608 
	C529.765381,313.557404 529.947266,314.007538 529.947266,314.007538 
	C529.865601,316.709686 529.783936,319.411804 529.722473,323.011261 
	C529.805298,345.277252 529.867981,366.645905 529.930664,388.014587 
	C529.896118,405.706238 529.861633,423.397919 529.870911,441.921448 
	C530.935242,443.076691 531.955811,443.400024 532.976379,443.723358 
z"/>
<path fill="#15141A" opacity="1.000000" stroke="none" 
	d="
M530.221863,387.713440 
	C529.867981,366.645905 529.805298,345.277252 529.839539,323.447937 
	C530.289246,324.213348 530.945679,325.438446 530.949646,326.665649 
	C531.012939,346.110199 530.998291,365.555054 530.971191,384.999786 
	C530.970093,385.804169 530.672546,386.608154 530.221863,387.713440 
z"/>
<path fill="#15141A" opacity="1.000000" stroke="none" 
	d="
M532.880493,443.420746 
	C531.955811,443.400024 530.935242,443.076691 529.976562,442.380157 
	C530.953918,442.377350 531.869263,442.747742 532.880493,443.420746 
z"/>
<path fill="#15141A" opacity="1.000000" stroke="none" 
	d="
M480.868774,498.875824 
	C480.567719,499.157196 480.108795,499.218628 479.312744,499.184052 
	C479.554047,498.943970 480.132477,498.799927 480.868774,498.875824 
z"/>
<path fill="#15141A" opacity="1.000000" stroke="none" 
	d="
M473.915222,498.932007 
	C473.847015,499.133026 473.673187,499.186798 473.239990,499.155212 
	C473.256958,498.974854 473.533264,498.879822 473.915222,498.932007 
z"/>
<path fill="#15141A" opacity="1.000000" stroke="none" 
	d="
M530.078125,313.893982 
	C529.947266,314.007538 529.765381,313.557404 529.765259,313.314697 
	C529.913086,313.308136 530.061035,313.544281 530.078125,313.893982 
z"/>
</svg>